P1
40 40
1111111111111111111111111111111111111111
1111111111111111111111111111111111111111
1111111111111111111111111111111111111111
1111111111111111111111111111111111111111
1111111111111111111111111111111111111111
1111111111111111111111111111111111111111
1111110011111111111111111111111111111111
1111000000111111111111111111111111111111
1111011110011111111111111111111111111111
1111011111000111111111111111111111111111
1110011111100111111111111100000011111111
1111011111100111111111111100111000111111
1111001111000111111111111001111110011111
1111101110000111111111111001111111011111
1111100000001111111111110011111111001111
1111111111111111111111111011111111001111
1111111111111111111111111001111110011111
1111111111111111111111111001111100011111
1111111111111111111111111100000001111111
1111111111111111111111111111111111111111
1111111111111111111111111111111111111111
1111111111111111111111111111111111111111
1111111111111111111111111111111111111111
1111111111111111111111111111111111111111
1111111111111111111011111111111111111111
1111111111111111000000011111111111111111
1111111111111100011110001111111111111111
1111111111111100011111001111111111111111
1111111111111101111111101111111111111111
1111111111111101111111101111111111111111
1111111111111101111111101111111111111111
1111111111111100111110001111111111111111
1111111111111110001100011111111111111111
1111111111111111000001111111111111111111
1111111111111111111111111111111111111111
1111111111111111111111111111111111111111
1111111111111111111111111111111111111111
1111111111111111111111111111111111111111
1111111111111111111111111111111111111111
1111111111111111111111111111111111111111
