P1
40 40
1111111111111111111111111111111111111111
1111111111111111111111111111111111111111
1111111111111111111111111111111111111111
1111111111111111111111111111111111111111
1111111111111111111111111111111111111111
1111111111111111111111111111111111111111
1111110011111111111111111111111111111111
1111000000111111111111111111111111111111
1111011110011111111111111111111111111111
1111011111000011111111111111111111111111
1110011111110011111111111111111111111111
1111011111110011111111111111111111111111
1111001111110011111111111111111111111111
1111101111110011111111111111111111111111
1111000000110111111111111111111111111111
1111111110000111111111111111111111111111
1111111111111111111111111111111111111111
1111111111111111111111111111111111111111
1111111111111111111111111111111111111111
1111111111111111111111111111111111111111
1111111111111111111111111111111111111111
1111111111111111111111111111111111111111
1111111111111111111111111111111111111111
1111111111111111111111111111111111111111
1111111111111111111111111111111111111111
1111111111111111111111111111111111111111
1111111111111111111111111111111111111111
1111111111111111111111111111111111111111
1111111111111111111111111111110000111111
1111111111111111111111111111110010001111
1111111111111111111111111111100111000111
1111111111111111111111111111101111110111
1111111111111111111111111111100111110111
1111111111111111111111111111110011100111
1111111111111111111111111111111000001111
1111111111111111111111111111111111111111
1111111111111111111111111111111111111111
1111111111111111111111111111111111111111
1111111111111111111111111111111111111111
1111111111111111111111111111111111111111
