P1
40 40
1111111111111111111111111111111111111111
1111111111111111111111111111111111111111
1111111111111111111111111111111111111111
1111111111111111111111111111111111111111
1111111111111111111111111111111111111111
1111111111111111111111111111111111111111
1111110011111111111111111111111111111111
1111000000111111111111111111111111111111
1111011110011111111111111111111111111111
1111011111000011111111111100001111111111
1110011111110011111111111000000011111111
1111011111110011111111111001111000111111
1111001111110011111111111001111110011111
1111101111110011111111111011111111011111
1111000000000011111111110011111111001111
1111111110000111111111111011111111001111
1111111111111111111111111001111110011111
1111111111111111111111111001111100011111
1111111111111111111111111100000001111111
1111111111111111111111111111110011111111
1111111111111111111111111111111111111111
1111111111111111111111111111111111111111
1111111111111111111111111111111111111111
1111111111111111111111111111111111111111
1111111111111111111111111111111111111111
1111111111111111111111111111111111111111
1111111111111111111111111111111111111111
1111111111111111111111111111111111111111
1111111111111111111111111111111101111111
1111111111111111111111111111110000001111
1111111111111111111111111111110111000111
1111111111111111111111111111100011110111
1111111111111111111111111111110011110111
1111111111111111111111111111110011100111
1111111111111111111111111111111000001111
1111111111111111111111111111111111111111
1111111111111111111111111111111111111111
1111111111111111111111111111111111111111
1111111111111111111111111111111111111111
1111111111111111111111111111111111111111
